<mxfile host="Electron" modified="2023-09-30T19:58:19.189Z" agent="Mozilla/5.0 (Windows NT 10.0; Win64; x64) AppleWebKit/537.36 (KHTML, like Gecko) draw.io/21.2.1 Chrome/112.0.5615.87 Electron/24.1.2 Safari/537.36" etag="Y_3x5kJYSHBAZ9YMQfmV" version="21.2.1" type="device">
  <diagram name="第 1 页" id="4fhVYQqLBI0pLXZjWB6o">
    <mxGraphModel dx="1430" dy="935" grid="1" gridSize="10" guides="1" tooltips="1" connect="1" arrows="1" fold="1" page="1" pageScale="1" pageWidth="827" pageHeight="1169" math="0" shadow="0">
      <root>
        <mxCell id="0" />
        <mxCell id="1" parent="0" />
        <mxCell id="K2NCRabXYJqXPWhtuIBi-7" value="" style="edgeStyle=orthogonalEdgeStyle;rounded=0;orthogonalLoop=1;jettySize=auto;html=1;" edge="1" parent="1" source="K2NCRabXYJqXPWhtuIBi-1" target="K2NCRabXYJqXPWhtuIBi-6">
          <mxGeometry relative="1" as="geometry" />
        </mxCell>
        <mxCell id="K2NCRabXYJqXPWhtuIBi-1" value="查询接口" style="rounded=1;whiteSpace=wrap;html=1;" vertex="1" parent="1">
          <mxGeometry x="150" y="130" width="120" height="60" as="geometry" />
        </mxCell>
        <mxCell id="K2NCRabXYJqXPWhtuIBi-9" value="" style="edgeStyle=orthogonalEdgeStyle;rounded=0;orthogonalLoop=1;jettySize=auto;html=1;" edge="1" parent="1" source="K2NCRabXYJqXPWhtuIBi-6" target="K2NCRabXYJqXPWhtuIBi-8">
          <mxGeometry relative="1" as="geometry">
            <Array as="points">
              <mxPoint x="210" y="330" />
              <mxPoint x="210" y="330" />
            </Array>
          </mxGeometry>
        </mxCell>
        <mxCell id="K2NCRabXYJqXPWhtuIBi-39" value="是" style="edgeLabel;html=1;align=center;verticalAlign=middle;resizable=0;points=[];" vertex="1" connectable="0" parent="K2NCRabXYJqXPWhtuIBi-9">
          <mxGeometry x="0.1379" y="1" relative="1" as="geometry">
            <mxPoint x="-1" y="-3" as="offset" />
          </mxGeometry>
        </mxCell>
        <mxCell id="K2NCRabXYJqXPWhtuIBi-23" style="edgeStyle=orthogonalEdgeStyle;rounded=1;orthogonalLoop=1;jettySize=auto;html=1;entryX=1;entryY=0.5;entryDx=0;entryDy=0;exitX=1;exitY=0.5;exitDx=0;exitDy=0;" edge="1" parent="1" source="K2NCRabXYJqXPWhtuIBi-6" target="K2NCRabXYJqXPWhtuIBi-14">
          <mxGeometry relative="1" as="geometry">
            <mxPoint x="450" y="830" as="targetPoint" />
            <Array as="points">
              <mxPoint x="400" y="270" />
              <mxPoint x="400" y="790" />
            </Array>
          </mxGeometry>
        </mxCell>
        <mxCell id="K2NCRabXYJqXPWhtuIBi-30" value="否" style="edgeLabel;html=1;align=center;verticalAlign=middle;resizable=0;points=[];" vertex="1" connectable="0" parent="K2NCRabXYJqXPWhtuIBi-23">
          <mxGeometry x="-0.8826" y="2" relative="1" as="geometry">
            <mxPoint as="offset" />
          </mxGeometry>
        </mxCell>
        <mxCell id="K2NCRabXYJqXPWhtuIBi-6" value="是否开启缓存" style="rhombus;whiteSpace=wrap;html=1;rounded=1;gradientColor=none;fillStyle=hatch;fillColor=#A9C4EB;shadow=0;sketch=1;curveFitting=1;jiggle=2;fontStyle=1" vertex="1" parent="1">
          <mxGeometry x="150" y="230" width="120" height="80" as="geometry" />
        </mxCell>
        <mxCell id="K2NCRabXYJqXPWhtuIBi-11" value="" style="edgeStyle=orthogonalEdgeStyle;rounded=0;orthogonalLoop=1;jettySize=auto;html=1;" edge="1" parent="1" source="K2NCRabXYJqXPWhtuIBi-8" target="K2NCRabXYJqXPWhtuIBi-10">
          <mxGeometry relative="1" as="geometry" />
        </mxCell>
        <mxCell id="K2NCRabXYJqXPWhtuIBi-40" value="是" style="edgeLabel;html=1;align=center;verticalAlign=middle;resizable=0;points=[];" vertex="1" connectable="0" parent="K2NCRabXYJqXPWhtuIBi-11">
          <mxGeometry x="0.1862" y="1" relative="1" as="geometry">
            <mxPoint x="-1" y="-10" as="offset" />
          </mxGeometry>
        </mxCell>
        <mxCell id="K2NCRabXYJqXPWhtuIBi-24" style="edgeStyle=orthogonalEdgeStyle;rounded=1;orthogonalLoop=1;jettySize=auto;html=1;entryX=1;entryY=0.5;entryDx=0;entryDy=0;" edge="1" parent="1" source="K2NCRabXYJqXPWhtuIBi-8" target="K2NCRabXYJqXPWhtuIBi-12">
          <mxGeometry relative="1" as="geometry">
            <Array as="points">
              <mxPoint x="330" y="400" />
              <mxPoint x="330" y="660" />
            </Array>
          </mxGeometry>
        </mxCell>
        <mxCell id="K2NCRabXYJqXPWhtuIBi-31" value="否" style="edgeLabel;html=1;align=center;verticalAlign=middle;resizable=0;points=[];" vertex="1" connectable="0" parent="K2NCRabXYJqXPWhtuIBi-24">
          <mxGeometry x="-0.8175" y="2" relative="1" as="geometry">
            <mxPoint as="offset" />
          </mxGeometry>
        </mxCell>
        <mxCell id="K2NCRabXYJqXPWhtuIBi-8" value="是否开启二级缓存" style="rhombus;whiteSpace=wrap;html=1;rounded=1;fillStyle=auto;fillColor=#9AC7BF;sketch=1;curveFitting=1;jiggle=2;fontStyle=1" vertex="1" parent="1">
          <mxGeometry x="150" y="350" width="120" height="80" as="geometry" />
        </mxCell>
        <mxCell id="K2NCRabXYJqXPWhtuIBi-13" value="" style="edgeStyle=orthogonalEdgeStyle;rounded=0;orthogonalLoop=1;jettySize=auto;html=1;" edge="1" parent="1" source="K2NCRabXYJqXPWhtuIBi-10" target="K2NCRabXYJqXPWhtuIBi-12">
          <mxGeometry relative="1" as="geometry" />
        </mxCell>
        <mxCell id="K2NCRabXYJqXPWhtuIBi-32" value="无缓存数据" style="edgeLabel;html=1;align=center;verticalAlign=middle;resizable=0;points=[];fontStyle=1" vertex="1" connectable="0" parent="K2NCRabXYJqXPWhtuIBi-13">
          <mxGeometry x="-0.2417" relative="1" as="geometry">
            <mxPoint y="11" as="offset" />
          </mxGeometry>
        </mxCell>
        <mxCell id="K2NCRabXYJqXPWhtuIBi-27" style="edgeStyle=orthogonalEdgeStyle;rounded=1;orthogonalLoop=1;jettySize=auto;html=1;entryX=0;entryY=0.5;entryDx=0;entryDy=0;" edge="1" parent="1" source="K2NCRabXYJqXPWhtuIBi-10" target="K2NCRabXYJqXPWhtuIBi-17">
          <mxGeometry relative="1" as="geometry">
            <Array as="points">
              <mxPoint x="210" y="560" />
              <mxPoint x="90" y="560" />
              <mxPoint x="90" y="900" />
            </Array>
          </mxGeometry>
        </mxCell>
        <mxCell id="K2NCRabXYJqXPWhtuIBi-10" value="查询二级缓存" style="whiteSpace=wrap;html=1;rounded=1;sketch=1;curveFitting=1;jiggle=2;fillColor=#D5E8D4;strokeColor=#36393d;fontStyle=1" vertex="1" parent="1">
          <mxGeometry x="150" y="480" width="120" height="60" as="geometry" />
        </mxCell>
        <mxCell id="K2NCRabXYJqXPWhtuIBi-15" value="" style="edgeStyle=orthogonalEdgeStyle;rounded=0;orthogonalLoop=1;jettySize=auto;html=1;" edge="1" parent="1" source="K2NCRabXYJqXPWhtuIBi-12" target="K2NCRabXYJqXPWhtuIBi-14">
          <mxGeometry relative="1" as="geometry" />
        </mxCell>
        <mxCell id="K2NCRabXYJqXPWhtuIBi-33" value="无缓存数据" style="edgeLabel;html=1;align=center;verticalAlign=middle;resizable=0;points=[];fontStyle=1" vertex="1" connectable="0" parent="K2NCRabXYJqXPWhtuIBi-15">
          <mxGeometry x="-0.2417" relative="1" as="geometry">
            <mxPoint x="30" y="13" as="offset" />
          </mxGeometry>
        </mxCell>
        <mxCell id="K2NCRabXYJqXPWhtuIBi-25" style="edgeStyle=orthogonalEdgeStyle;rounded=1;orthogonalLoop=1;jettySize=auto;html=1;entryX=0;entryY=0.5;entryDx=0;entryDy=0;" edge="1" parent="1" source="K2NCRabXYJqXPWhtuIBi-12" target="K2NCRabXYJqXPWhtuIBi-17">
          <mxGeometry relative="1" as="geometry">
            <Array as="points">
              <mxPoint x="210" y="730" />
              <mxPoint x="90" y="730" />
              <mxPoint x="90" y="900" />
            </Array>
          </mxGeometry>
        </mxCell>
        <mxCell id="K2NCRabXYJqXPWhtuIBi-34" value="有缓存数据" style="edgeLabel;html=1;align=center;verticalAlign=middle;resizable=0;points=[];fontStyle=1" vertex="1" connectable="0" parent="K2NCRabXYJqXPWhtuIBi-25">
          <mxGeometry x="-0.215" y="2" relative="1" as="geometry">
            <mxPoint as="offset" />
          </mxGeometry>
        </mxCell>
        <mxCell id="K2NCRabXYJqXPWhtuIBi-12" value="查询Redis缓存" style="whiteSpace=wrap;html=1;rounded=1;fillColor=#cce5ff;strokeColor=#36393d;sketch=1;curveFitting=1;jiggle=2;fontStyle=1" vertex="1" parent="1">
          <mxGeometry x="150" y="630" width="120" height="60" as="geometry" />
        </mxCell>
        <mxCell id="K2NCRabXYJqXPWhtuIBi-18" value="" style="edgeStyle=orthogonalEdgeStyle;rounded=0;orthogonalLoop=1;jettySize=auto;html=1;" edge="1" parent="1" source="K2NCRabXYJqXPWhtuIBi-14" target="K2NCRabXYJqXPWhtuIBi-17">
          <mxGeometry relative="1" as="geometry" />
        </mxCell>
        <mxCell id="K2NCRabXYJqXPWhtuIBi-37" style="edgeStyle=orthogonalEdgeStyle;rounded=0;orthogonalLoop=1;jettySize=auto;html=1;entryX=0;entryY=0.5;entryDx=0;entryDy=0;fontColor=#FF3333;" edge="1" parent="1" source="K2NCRabXYJqXPWhtuIBi-14" target="K2NCRabXYJqXPWhtuIBi-36">
          <mxGeometry relative="1" as="geometry">
            <Array as="points">
              <mxPoint x="210" y="835" />
            </Array>
          </mxGeometry>
        </mxCell>
        <mxCell id="K2NCRabXYJqXPWhtuIBi-38" value="&lt;font color=&quot;#ff3333&quot;&gt;开启缓存&lt;/font&gt;" style="edgeLabel;html=1;align=center;verticalAlign=middle;resizable=0;points=[];fontStyle=1" vertex="1" connectable="0" parent="K2NCRabXYJqXPWhtuIBi-37">
          <mxGeometry x="-0.029" y="-1" relative="1" as="geometry">
            <mxPoint x="9" y="-1" as="offset" />
          </mxGeometry>
        </mxCell>
        <mxCell id="K2NCRabXYJqXPWhtuIBi-14" value="查询业务" style="whiteSpace=wrap;html=1;rounded=1;fillColor=#ffcd28;gradientColor=none;strokeColor=#d79b00;sketch=1;curveFitting=1;jiggle=2;fontStyle=1" vertex="1" parent="1">
          <mxGeometry x="150" y="760" width="120" height="60" as="geometry" />
        </mxCell>
        <mxCell id="K2NCRabXYJqXPWhtuIBi-17" value="返回数据" style="whiteSpace=wrap;html=1;rounded=1;" vertex="1" parent="1">
          <mxGeometry x="150" y="870" width="120" height="60" as="geometry" />
        </mxCell>
        <mxCell id="K2NCRabXYJqXPWhtuIBi-36" value="缓存返回的数据" style="rounded=1;whiteSpace=wrap;html=1;fillColor=#FFFF00;strokeColor=#36393d;fontStyle=1;sketch=1;curveFitting=1;jiggle=2;fillStyle=cross-hatch;" vertex="1" parent="1">
          <mxGeometry x="310" y="820" width="100" height="30" as="geometry" />
        </mxCell>
        <mxCell id="K2NCRabXYJqXPWhtuIBi-48" value="" style="edgeStyle=orthogonalEdgeStyle;rounded=0;orthogonalLoop=1;jettySize=auto;html=1;" edge="1" parent="1" source="K2NCRabXYJqXPWhtuIBi-49" target="K2NCRabXYJqXPWhtuIBi-75">
          <mxGeometry relative="1" as="geometry">
            <mxPoint x="600.0000000000002" y="230" as="targetPoint" />
          </mxGeometry>
        </mxCell>
        <mxCell id="K2NCRabXYJqXPWhtuIBi-49" value="更新接口" style="rounded=1;whiteSpace=wrap;html=1;" vertex="1" parent="1">
          <mxGeometry x="540" y="130" width="120" height="60" as="geometry" />
        </mxCell>
        <mxCell id="K2NCRabXYJqXPWhtuIBi-79" style="edgeStyle=orthogonalEdgeStyle;rounded=0;orthogonalLoop=1;jettySize=auto;html=1;" edge="1" parent="1" source="K2NCRabXYJqXPWhtuIBi-75" target="K2NCRabXYJqXPWhtuIBi-77">
          <mxGeometry relative="1" as="geometry" />
        </mxCell>
        <mxCell id="K2NCRabXYJqXPWhtuIBi-75" value="更新业务" style="whiteSpace=wrap;html=1;rounded=1;fillColor=#ffcd28;strokeColor=#d79b00;sketch=1;curveFitting=1;jiggle=2;gradientColor=none;shadow=0;fontStyle=1" vertex="1" parent="1">
          <mxGeometry x="540" y="230" width="120" height="60" as="geometry" />
        </mxCell>
        <mxCell id="K2NCRabXYJqXPWhtuIBi-87" value="" style="edgeStyle=orthogonalEdgeStyle;rounded=0;orthogonalLoop=1;jettySize=auto;html=1;" edge="1" parent="1" source="K2NCRabXYJqXPWhtuIBi-77" target="K2NCRabXYJqXPWhtuIBi-86">
          <mxGeometry relative="1" as="geometry" />
        </mxCell>
        <mxCell id="K2NCRabXYJqXPWhtuIBi-93" style="edgeStyle=orthogonalEdgeStyle;rounded=0;orthogonalLoop=1;jettySize=auto;html=1;entryX=1;entryY=0.5;entryDx=0;entryDy=0;" edge="1" parent="1" source="K2NCRabXYJqXPWhtuIBi-77" target="K2NCRabXYJqXPWhtuIBi-91">
          <mxGeometry relative="1" as="geometry">
            <Array as="points">
              <mxPoint x="733" y="370.0000000000001" />
              <mxPoint x="733" y="890" />
            </Array>
          </mxGeometry>
        </mxCell>
        <mxCell id="K2NCRabXYJqXPWhtuIBi-94" value="否" style="edgeLabel;html=1;align=center;verticalAlign=middle;resizable=0;points=[];" vertex="1" connectable="0" parent="K2NCRabXYJqXPWhtuIBi-93">
          <mxGeometry x="-0.9329" y="-2" relative="1" as="geometry">
            <mxPoint x="11" y="-2" as="offset" />
          </mxGeometry>
        </mxCell>
        <mxCell id="K2NCRabXYJqXPWhtuIBi-77" value="是否开启缓存" style="rhombus;whiteSpace=wrap;html=1;rounded=1;gradientColor=none;fillStyle=hatch;fillColor=#A9C4EB;shadow=0;sketch=1;curveFitting=1;jiggle=2;fontStyle=1" vertex="1" parent="1">
          <mxGeometry x="540" y="330" width="120" height="80" as="geometry" />
        </mxCell>
        <mxCell id="K2NCRabXYJqXPWhtuIBi-84" value="" style="edgeStyle=orthogonalEdgeStyle;rounded=0;orthogonalLoop=1;jettySize=auto;html=1;" edge="1" parent="1" source="K2NCRabXYJqXPWhtuIBi-78" target="K2NCRabXYJqXPWhtuIBi-83">
          <mxGeometry relative="1" as="geometry" />
        </mxCell>
        <mxCell id="K2NCRabXYJqXPWhtuIBi-95" style="edgeStyle=orthogonalEdgeStyle;rounded=0;orthogonalLoop=1;jettySize=auto;html=1;entryX=1;entryY=0.5;entryDx=0;entryDy=0;" edge="1" parent="1" source="K2NCRabXYJqXPWhtuIBi-78" target="K2NCRabXYJqXPWhtuIBi-91">
          <mxGeometry relative="1" as="geometry">
            <Array as="points">
              <mxPoint x="733" y="580" />
              <mxPoint x="733" y="890" />
            </Array>
          </mxGeometry>
        </mxCell>
        <mxCell id="K2NCRabXYJqXPWhtuIBi-96" value="否" style="edgeLabel;html=1;align=center;verticalAlign=middle;resizable=0;points=[];" vertex="1" connectable="0" parent="K2NCRabXYJqXPWhtuIBi-95">
          <mxGeometry x="-0.8898" y="-2" relative="1" as="geometry">
            <mxPoint x="8" y="-2" as="offset" />
          </mxGeometry>
        </mxCell>
        <mxCell id="K2NCRabXYJqXPWhtuIBi-78" value="是否开启二级缓存" style="rhombus;whiteSpace=wrap;html=1;rounded=1;fillStyle=auto;fillColor=#9AC7BF;sketch=1;curveFitting=1;jiggle=2;fontStyle=1" vertex="1" parent="1">
          <mxGeometry x="540" y="540" width="120" height="80" as="geometry" />
        </mxCell>
        <mxCell id="K2NCRabXYJqXPWhtuIBi-90" value="" style="edgeStyle=orthogonalEdgeStyle;rounded=0;orthogonalLoop=1;jettySize=auto;html=1;" edge="1" parent="1" source="K2NCRabXYJqXPWhtuIBi-83" target="K2NCRabXYJqXPWhtuIBi-89">
          <mxGeometry relative="1" as="geometry" />
        </mxCell>
        <mxCell id="K2NCRabXYJqXPWhtuIBi-83" value="更新二级缓存" style="whiteSpace=wrap;html=1;fillColor=#9AC7BF;rounded=1;fillStyle=auto;sketch=1;curveFitting=1;jiggle=2;fontStyle=1;" vertex="1" parent="1">
          <mxGeometry x="540" y="660" width="120" height="60" as="geometry" />
        </mxCell>
        <mxCell id="K2NCRabXYJqXPWhtuIBi-88" style="edgeStyle=orthogonalEdgeStyle;rounded=0;orthogonalLoop=1;jettySize=auto;html=1;" edge="1" parent="1" source="K2NCRabXYJqXPWhtuIBi-86" target="K2NCRabXYJqXPWhtuIBi-78">
          <mxGeometry relative="1" as="geometry" />
        </mxCell>
        <mxCell id="K2NCRabXYJqXPWhtuIBi-86" value="更新Redis缓存" style="rounded=1;whiteSpace=wrap;html=1;fillColor=#A9C4EB;gradientColor=none;fillStyle=hatch;shadow=0;sketch=1;curveFitting=1;jiggle=2;fontStyle=1;" vertex="1" parent="1">
          <mxGeometry x="540" y="450" width="120" height="60" as="geometry" />
        </mxCell>
        <mxCell id="K2NCRabXYJqXPWhtuIBi-92" style="edgeStyle=orthogonalEdgeStyle;rounded=0;orthogonalLoop=1;jettySize=auto;html=1;" edge="1" parent="1" source="K2NCRabXYJqXPWhtuIBi-89" target="K2NCRabXYJqXPWhtuIBi-91">
          <mxGeometry relative="1" as="geometry" />
        </mxCell>
        <mxCell id="K2NCRabXYJqXPWhtuIBi-89" value="分布式缓存更新&lt;br&gt;（广播订阅）" style="whiteSpace=wrap;html=1;fillColor=#9AC7BF;rounded=1;fillStyle=auto;sketch=1;curveFitting=1;jiggle=2;fontStyle=1;" vertex="1" parent="1">
          <mxGeometry x="540" y="760" width="120" height="60" as="geometry" />
        </mxCell>
        <mxCell id="K2NCRabXYJqXPWhtuIBi-91" value="返回数据" style="whiteSpace=wrap;html=1;rounded=1;" vertex="1" parent="1">
          <mxGeometry x="540" y="860" width="120" height="60" as="geometry" />
        </mxCell>
      </root>
    </mxGraphModel>
  </diagram>
</mxfile>
